<?xml version="1.0" encoding="utf-8"?>
<!-- Generator: Adobe Illustrator 17.0.0, SVG Export Plug-In . SVG Version: 6.00 Build 0)  -->
<!DOCTYPE svg PUBLIC "-//W3C//DTD SVG 1.1//EN" "http://www.w3.org/Graphics/SVG/1.1/DTD/svg11.dtd">
<svg version="1.1" id="Layer_2" xmlns="http://www.w3.org/2000/svg" xmlns:xlink="http://www.w3.org/1999/xlink" x="0px" y="0px"
	 width="512px" height="512px" viewBox="0 0 512 512" enable-background="new 0 0 512 512" xml:space="preserve">
<g>
	<path fill="#FFFFFF" d="M512,118.829c0,6.6-5.4,12-12,12H12c-6.6,0-12-5.4-12-12V54.785c0-6.6,5.4-12,12-12h488c6.6,0,12,5.4,12,12
		V118.829z"/>
</g>
<g>
	<path fill="#FFFFFF" d="M512,286.077c0,6.6-5.4,12-12,12H12c-6.6,0-12-5.4-12-12v-64.044c0-6.6,5.4-12,12-12h488
		c6.6,0,12,5.4,12,12V286.077z"/>
</g>
<g>
	<path fill="#FFFFFF" d="M512,455.801c0,6.6-5.4,12-12,12H12c-6.6,0-12-5.4-12-12v-64.044c0-6.6,5.4-12,12-12h488
		c6.6,0,12,5.4,12,12V455.801z"/>
</g>
</svg>
