<?xml version="1.0" encoding="utf-8"?>
<!-- Generator: Adobe Illustrator 17.0.0, SVG Export Plug-In . SVG Version: 6.00 Build 0)  -->
<!DOCTYPE svg PUBLIC "-//W3C//DTD SVG 1.1//EN" "http://www.w3.org/Graphics/SVG/1.1/DTD/svg11.dtd">
<svg version="1.1" id="Layer_1" xmlns="http://www.w3.org/2000/svg" xmlns:xlink="http://www.w3.org/1999/xlink" x="0px" y="0px"
	 width="512px" height="512px" viewBox="0 0 512 512" enable-background="new 0 0 512 512" xml:space="preserve">
<circle fill-rule="evenodd" clip-rule="evenodd" fill="#E4A530" cx="256" cy="256" r="256"/>
<path fill-rule="evenodd" clip-rule="evenodd" fill="#C28B26" d="M505.716,312.566l-95.964-95.965l-10.888,10.886L293.908,122.53
	l-52.926,80.6L99.861,245.435l68.416,68.415l-48.009,73.111L243.87,510.563h39.313C392.877,498.984,481.904,418.133,505.716,312.566
	z"/>
<g>
	<path fill-rule="evenodd" clip-rule="evenodd" fill="#FBF4E4" d="M394.59,339.741v12.24h-61.184H177.155h-61.18v-12.24v-87.363
		c-11.95,0-21.639-9.349-21.639-20.88c0-11.535,9.689-20.884,21.639-20.884c10.22,0,18.786,6.84,21.052,16.033l31.942-50.027
		c7.081-11.091,16.504-23.25,31.544-23.25h13.671v-24.25c0-5.542,4.529-10.07,10.071-10.07h62.055c5.54,0,10.071,4.529,10.071,10.07
		v24.25h12.187c19.19,0,23.174,7.825,33.026,23.25l31.943,50.027c2.268-9.193,10.831-16.033,21.051-16.033
		c11.953,0,21.64,9.349,21.64,20.884c0,11.531-9.685,20.88-21.637,20.88V339.741z"/>
	<path fill-rule="evenodd" clip-rule="evenodd" fill="#C28B26" d="M152.721,231.498h205.12l-29.065-45.523
		c-8.389-13.131-11.78-19.791-28.123-19.791h-92.008c-12.807,0-20.828,10.348-26.861,19.791L152.721,231.498z"/>
	<circle fill-rule="evenodd" clip-rule="evenodd" fill="#C28B26" cx="158.318" cy="284.679" r="26.783"/>
	<circle fill-rule="evenodd" clip-rule="evenodd" fill="#C28B26" cx="352.246" cy="284.679" r="26.783"/>
	<circle fill-rule="evenodd" clip-rule="evenodd" fill="#FBF4E4" cx="158.318" cy="284.68" r="22.119"/>
	<circle fill-rule="evenodd" clip-rule="evenodd" fill="#FBF4E4" cx="352.246" cy="284.68" r="22.119"/>
	<path fill-rule="evenodd" clip-rule="evenodd" fill="#FBF4E4" d="M394.59,343.663v32.794c0,8.283-6.776,15.057-15.058,15.057
		h-31.069c-8.282,0-15.056-6.774-15.056-15.057v-32.794H394.59L394.59,343.663z M177.155,343.663v32.794
		c0,8.283-6.774,15.057-15.055,15.057H131.03c-8.282,0-15.055-6.774-15.055-15.057v-32.794H177.155z"/>
	<rect x="211.513" y="317.154" fill-rule="evenodd" clip-rule="evenodd" fill="#FBF4E4" width="87.536" height="25.416"/>
	<path fill-rule="evenodd" clip-rule="evenodd" fill="#FBF4E4" d="M219.701,153.37v-20.013c0-4.574,3.92-8.314,8.717-8.314h53.726
		c4.798,0,8.719,3.741,8.719,8.314v20.013H219.701z"/>
	<path fill="#FBF4E4" d="M250.947,143.688v-2.766h2.24l-2.24-6.035v-3.897h1.77l6.58,16.431h-3.611l-1.435-3.734H250.947
		L250.947,143.688z M259.385,147.422l5.615-8.575l-5.087-7.856h3.874l3.298,5.282l3.226-5.282h3.845l-5.112,7.982l5.616,8.45h-4.001
		l-3.644-5.681l-3.653,5.681H259.385L259.385,147.422z M276.262,147.422V130.99h3.318v16.431H276.262z M243.425,130.99h0.616v2.783
		h-0.616V130.99L243.425,130.99z M250.947,130.99h-1.739l-5.783,14.849v1.582h2.903l1.355-3.734h3.264v-2.766h-2.243l2.219-6.097
		l0.024,0.063V130.99z M235.857,147.422v-13.648h-4.872v-2.783h12.441v2.783h-4.247v13.648H235.857L235.857,147.422z
		 M243.425,145.839l-0.616,1.582h0.616V145.839z"/>
	<g>
		<rect x="196.855" y="271.645" fill-rule="evenodd" clip-rule="evenodd" fill="#FBF4E4" width="116.853" height="6.58"/>
		<path fill-rule="evenodd" clip-rule="evenodd" fill="#FBF4E4" d="M196.855,282.067c38.95,0,77.901,0,116.853,0
			c0,1.648,0,3.293,0,4.938c-38.951,0-77.903,0-116.853,0C196.855,285.36,196.855,283.715,196.855,282.067z"/>
		<rect x="196.855" y="292.491" fill-rule="evenodd" clip-rule="evenodd" fill="#FBF4E4" width="116.853" height="3.293"/>
	</g>
</g>
</svg>
