<?xml version="1.0" encoding="utf-8"?>
<!-- Generator: Adobe Illustrator 17.0.0, SVG Export Plug-In . SVG Version: 6.00 Build 0)  -->
<!DOCTYPE svg PUBLIC "-//W3C//DTD SVG 1.1//EN" "http://www.w3.org/Graphics/SVG/1.1/DTD/svg11.dtd">
<svg version="1.1" id="Layer_1" xmlns="http://www.w3.org/2000/svg" xmlns:xlink="http://www.w3.org/1999/xlink" x="0px" y="0px"
	 width="512px" height="512px" viewBox="0 0 512 512" enable-background="new 0 0 512 512" xml:space="preserve">
<circle fill-rule="evenodd" clip-rule="evenodd" fill="#4C8EB4" cx="256" cy="256" r="256"/>
<path fill-rule="evenodd" clip-rule="evenodd" fill="#265F80" d="M139.026,141.8l-16.519,106.646l-1.831,5.436l-25.941,83.639
	l33.24,32.365l-35.592,6.992l22.301,19.408l-50.652,9.339l81.257,81.257c30.552,14.677,64.469,23.451,100.277,24.887h20.87
	C402.979,506.294,512,393.888,512,256c0-5.72-0.207-11.392-0.577-17.019L371.117,98.675L139.026,141.8z"/>
<path fill-rule="evenodd" clip-rule="evenodd" fill="#F4F9FC" d="M146.339,313.503c5.805,2.183,9.936,7.785,9.936,14.353
	c0,8.465-6.863,15.329-15.33,15.329c-5.285,0-9.946-2.676-12.703-6.747c-2.018,0.979-4.282,1.526-6.675,1.526
	c-1.686,0-3.311-0.273-4.828-0.776c-2.796,2.97-6.763,4.824-11.163,4.824c-8.465,0-15.33-6.862-15.33-15.329
	c0-3.334,1.066-6.42,2.874-8.933c-0.195-0.979-0.298-1.989-0.298-3.024c0-3.882,1.444-7.427,3.823-10.126
	c-6.509-1.772-11.297-7.723-11.297-14.793c0-8.314,6.617-15.079,14.872-15.323c-1.022-2.054-1.6-4.372-1.6-6.823
	c0-8.465,6.863-15.329,15.33-15.329c8.425,0,15.262,6.797,15.328,15.206c1.559-0.535,3.233-0.826,4.974-0.826
	c8.465,0,15.328,6.863,15.328,15.329c0,4.372-1.83,8.318-4.768,11.112c2.89,2.789,4.687,6.699,4.687,11.033
	C149.497,307.692,148.318,310.921,146.339,313.503z"/>
<path fill-rule="evenodd" clip-rule="evenodd" fill="#F4F9FC" d="M386.085,337.187c-2.796,2.972-6.763,4.824-11.164,4.824
	c-8.467,0-15.329-6.862-15.329-15.329c0-2.894,0.803-5.602,2.198-7.912c-1.89-2.549-3.007-5.705-3.007-9.121
	c0-4.893,2.293-9.249,5.861-12.055c-4.206-2.733-6.991-7.474-6.991-12.864c0-8.466,6.865-15.33,15.33-15.33
	c0.787,0,1.56,0.06,2.316,0.175c1.85-6.388,7.742-11.057,14.725-11.057c7.929,0,14.454,6.024,15.247,13.744
	c6.631,1.687,11.538,7.698,11.538,14.855c0,2.536-0.617,4.927-1.706,7.034c2.33,2.69,3.74,6.197,3.74,10.035
	c0,4.541-1.974,8.622-5.111,11.428c4.812,2.586,8.083,7.666,8.083,13.512c0,8.465-6.863,15.329-15.329,15.329
	c-5.291,0-9.957-2.679-12.712-6.758c-0.927,0.177-1.884,0.268-2.863,0.268C389.225,337.964,387.603,337.691,386.085,337.187z"/>
<path fill-rule="evenodd" clip-rule="evenodd" fill="#F4F9FC" d="M403.835,353.845l0.866-3.756c-2.896-0.245-5.63-1.078-8.08-2.38
	c-1.988-1.057-3.788-2.425-5.333-4.04c-0.133,0.003-0.259,0.006-0.378,0.006c-1.033,0-2.121-0.093-3.249-0.27
	c-1.348,1.023-2.828,1.89-4.413,2.577c-1.548,0.668-3.176,1.159-4.859,1.447l1.48,6.416H403.835z"/>
<path fill-rule="evenodd" clip-rule="evenodd" fill="#F4F9FC" d="M134.489,353.845l1.289-5.59c-1.648-0.418-3.22-1.03-4.691-1.81
	c-1.692-0.9-3.252-2.033-4.637-3.36l-0.184,0.043l0.002,0.005c-1.549,0.355-3.125,0.542-4.702,0.542
	c-1.035,0-2.123-0.093-3.252-0.27c-1.347,1.023-2.827,1.89-4.412,2.575c-1.548,0.669-3.177,1.16-4.858,1.447l1.479,6.417H134.489z"
	/>
<rect x="92.382" y="359.556" fill-rule="evenodd" clip-rule="evenodd" fill="#F4F9FC" width="329.595" height="17.323"/>
<rect x="64.031" y="382.591" fill-rule="evenodd" clip-rule="evenodd" fill="#F4F9FC" width="386.298" height="23.035"/>
<path fill-rule="evenodd" clip-rule="evenodd" fill="#F4F9FC" d="M347.87,87.303c25.094,5.661,43.983,28.2,43.983,54.94v110.642
	c-0.603-0.051-1.212-0.079-1.828-0.079c-4.708,0-9.076,1.571-12.607,4.223c-2.384,1.791-4.375,4.078-5.821,6.705
	c-4.913,0.319-9.367,2.327-12.786,5.446H347.87v-7.54h19.957v-33.806H347.87v-12.207h19.957v-33.806H347.87V87.303L347.87,87.303z
	 M347.87,302.986h6.292c-0.706,2.102-1.089,4.343-1.089,6.664c0,2.293,0.372,4.508,1.058,6.589c0.322,0.978,0.719,1.927,1.182,2.843
	c-0.246,0.641-0.465,1.298-0.652,1.974c-0.508,1.831-0.781,3.72-0.781,5.627c0,5.81,2.357,11.071,6.163,14.878
	c3.729,3.729,8.85,6.064,14.517,6.16l1.411,6.124H347.87V302.986z M287.411,85.932h48.131c4.231,0,8.357,0.476,12.328,1.371v94.519
	h-19.958v33.806h19.958v12.207h-19.958v33.806h19.958v7.54h-19.958v33.806h19.958v50.859h-60.459v-8.464h22.93v-76.201h-22.93v-7.54
	h19.957v-33.806h-19.957v-12.207h19.957v-33.806h-19.957V85.932z M257.179,85.932h30.231v95.89h-19.958v33.806h19.958v12.207
	h-19.958v33.806h19.958v7.54h-30.231V85.932L257.179,85.932z M287.411,353.845h-30.231v-8.464h30.231V353.845z M226.951,85.932
	h30.228v183.249h-30.228v-7.54h19.957v-33.806h-19.957v-12.207h19.957v-33.806h-19.957V85.932L226.951,85.932z M257.179,353.845
	h-30.228v-8.464h30.228V353.845z M178.817,85.932h48.134v95.89h-19.957v33.806h19.957v12.207h-19.957v33.806h19.957v7.54h-22.933
	v76.201h22.933v8.464h-60.459v-50.859h19.957v-33.806h-19.957v-7.54h19.957v-33.806h-19.957v-12.207h19.957v-33.806h-19.957V87.303
	C170.462,86.408,174.587,85.932,178.817,85.932z M166.492,353.845h-28.104l1.152-4.995c0.465,0.029,0.933,0.046,1.404,0.046
	c5.81,0,11.071-2.357,14.878-6.165c3.808-3.807,6.164-9.068,6.164-14.876c0-4.422-1.382-8.54-3.742-11.95
	c-1.197-1.729-2.648-3.272-4.295-4.572c0.048-0.132,0.095-0.266,0.14-0.401c0.725-2.141,1.119-4.411,1.119-6.747
	c0-0.401-0.012-0.801-0.034-1.199h11.318V353.845L166.492,353.845z M166.492,269.181h-15.592c-0.549-0.71-1.142-1.384-1.775-2.016
	c-3.808-3.808-9.068-6.163-14.877-6.163l-0.361,0.003c-1.05-3.159-2.827-5.98-5.13-8.264c-1.799-1.785-3.914-3.247-6.251-4.295
	V142.243c0-26.739,18.891-49.28,43.986-54.94v94.519h-19.957v33.806h19.957v12.207h-19.957v33.806h19.957V269.181z"/>
<path fill="#265F80" d="M231.321,168.388v-5.655h0.039c2.633,0,4.802-0.948,6.497-2.855c1.686-1.901,2.534-4.749,2.534-8.551
	c0-3.756-0.824-6.557-2.465-8.413c-1.65-1.847-3.841-2.77-6.566-2.77h-0.039v-5.658c4.819,0.006,8.672,1.503,11.566,4.496
	c2.902,2.993,4.352,7.161,4.352,12.497c0,5.299-1.442,9.437-4.32,12.429c-2.879,2.985-6.726,4.481-11.536,4.481H231.321
	L231.321,168.388z M259.781,167.831v-27.238h-9.724v-5.55h26.054v5.55h-9.702v27.238H259.781L259.781,167.831z M280.386,167.831
	v-32.788h24.307v5.55h-17.69v7.268h16.46v5.52h-16.46v8.924h18.316v5.526H280.386L280.386,167.831z M311.114,167.831V135.31h6.618
	v26.995h16.46v5.526H311.114z M183.715,167.831v-32.788h6.626v12.901h12.97v-12.901h6.619v32.788h-6.619v-14.336h-12.97v14.336
	H183.715L183.715,167.831z M231.321,134.486v5.658c-2.715,0.009-4.9,0.947-6.564,2.807c-1.665,1.872-2.504,4.688-2.504,8.467
	c0,3.711,0.863,6.527,2.572,8.444c1.71,1.906,3.872,2.862,6.497,2.871v5.655c-4.849-0.012-8.708-1.5-11.573-4.457
	c-2.878-2.976-4.313-7.076-4.313-12.291c0-3.343,0.496-6.144,1.496-8.413c0.748-1.664,1.764-3.167,3.054-4.496
	c1.29-1.322,2.702-2.305,4.237-2.947c2.045-0.871,4.396-1.298,7.068-1.298H231.321z"/>
<g>
	<polygon fill-rule="evenodd" clip-rule="evenodd" fill="#265F80" points="257.024,102.365 259.92,111.341 269.351,111.322 
		261.711,116.851 264.642,125.814 257.024,120.257 249.406,125.814 252.337,116.851 244.697,111.322 254.126,111.341 	"/>
	<g>
		<polygon fill-rule="evenodd" clip-rule="evenodd" fill="#265F80" points="282.709,105.642 285.2,113.362 293.314,113.347 
			286.742,118.103 289.262,125.814 282.709,121.033 276.155,125.814 278.676,118.103 272.104,113.347 280.216,113.362 		"/>
		<polygon fill-rule="evenodd" clip-rule="evenodd" fill="#265F80" points="305.355,108.315 307.516,115.012 314.553,114.998 
			308.853,119.126 311.039,125.814 305.355,121.667 299.669,125.814 301.855,119.126 296.154,114.998 303.192,115.012 		"/>
		<polygon fill-rule="evenodd" clip-rule="evenodd" fill="#265F80" points="231.339,105.642 228.847,113.362 220.734,113.347 
			227.307,118.103 224.785,125.814 231.339,121.033 237.894,125.814 235.371,118.103 241.944,113.347 233.831,113.362 		"/>
		<polygon fill-rule="evenodd" clip-rule="evenodd" fill="#265F80" points="208.693,108.315 206.531,115.012 199.493,114.998 
			205.196,119.126 203.007,125.814 208.693,121.667 214.38,125.814 212.192,119.126 217.894,114.998 210.855,115.012 		"/>
	</g>
</g>
</svg>
