<?xml version="1.0" encoding="utf-8"?>
<!-- Generator: Adobe Illustrator 17.0.0, SVG Export Plug-In . SVG Version: 6.00 Build 0)  -->
<!DOCTYPE svg PUBLIC "-//W3C//DTD SVG 1.1//EN" "http://www.w3.org/Graphics/SVG/1.1/DTD/svg11.dtd">
<svg version="1.1" id="Layer_1" xmlns="http://www.w3.org/2000/svg" xmlns:xlink="http://www.w3.org/1999/xlink" x="0px" y="0px"
	 width="512px" height="512px" viewBox="0 0 512 512" enable-background="new 0 0 512 512" xml:space="preserve">
<circle fill="#C95234" cx="256.149" cy="256.149" r="256.149"/>
<path fill="#8F321B" d="M500.975,331.673l-202.07-188.671l-99.74,17.439L191,194.14l0.625,7.58l16.324,39.065l0.292,35.858
	l-64.972,15.551l-7.084,12.58v109.303l97.204,97.203c7.501,0.661,15.088,1.018,22.761,1.018
	C371.328,512.297,468.744,436.275,500.975,331.673z"/>
<path fill="#8F321B" d="M143.269,292.193l91.001-21.78c7.11,2.587,14.816,4.022,23.035,4.022c8.221,0,15.927-1.435,23.035-4.022
	l91.002,21.78l4.772,12.58v109.303H136.185V304.773L143.269,292.193z"/>
<path fill="#FCF2EF" d="M306.37,276.642l64.971,15.551l-30.664,121.884H173.935l-30.666-121.884l64.972-15.551v-21.435
	c9.235,7.967,20.14,13.9,32.409,16.755v43.257l33.311-8.333v-34.924c12.272-2.852,23.176-8.788,32.409-16.755V276.642z"/>
<polygon fill="#8F321B" points="273.961,306.89 217.714,320.94 215.707,312.778 273.961,298.171 "/>
<polygon fill="#8F321B" points="224.114,312.827 224.114,414.077 215.707,414.077 215.707,312.778 "/>
<g>
	<circle fill="#8F321B" cx="238.171" cy="396.238" r="6.257"/>
	<circle fill="#8F321B" cx="276.44" cy="396.238" r="6.257"/>
</g>
<g>
	<circle fill="#8F321B" cx="238.171" cy="346.879" r="6.259"/>
	<circle fill="#8F321B" cx="276.44" cy="346.879" r="6.259"/>
</g>
<path fill="#FCF2EF" d="M283.477,191.946c-11.238-6.609-20.296-15.767-26.247-26.045l-0.022,0.035
	c-6.153,10.08-15.892,18.897-28.086,25.29c-10.815,5.669-23.585,9.439-37.496,10.495c4.331,32.512,29.437,64.327,65.582,64.372
	h0.075c35.805,0,60.787-31.171,65.507-63.345C308.13,202.628,294.712,198.554,283.477,191.946z"/>
<path fill="#FCF2EF" d="M136.185,304.773v109.303h27.222L136.185,304.773z"/>
<path fill="#FCF2EF" d="M376.114,304.773v109.303H348.89L376.114,304.773z"/>
<path fill="#FCF2EF" d="M303.295,146.707c-0.746-0.904-2.175-2.102-4.39-3.705c-11.388-8.238-25.865-13.169-41.624-13.169
	c-24.923,0-46.635,12.336-57.997,30.579l-0.12,0.028c-5.998,9.948-8.552,21.707-8.164,33.699
	c12.871-0.968,24.655-4.436,34.604-9.652c13.348-6.995,23.356-17.11,28.174-28.465c0.373-0.874,1.069-1.608,2.013-2.009
	c0.463-0.198,0.942-0.296,1.416-0.306c1.508-0.028,2.951,0.843,3.578,2.315c4.922,11.599,14.271,22.153,26.538,29.367
	c10.307,6.062,22.67,9.763,36.199,9.746C324.369,176.609,318.227,158.543,303.295,146.707z"/>
</svg>
