<?xml version="1.0" encoding="utf-8"?>
<!-- Generator: Adobe Illustrator 17.0.0, SVG Export Plug-In . SVG Version: 6.00 Build 0)  -->
<!DOCTYPE svg PUBLIC "-//W3C//DTD SVG 1.1//EN" "http://www.w3.org/Graphics/SVG/1.1/DTD/svg11.dtd">
<svg version="1.1" id="Layer_2" xmlns="http://www.w3.org/2000/svg" xmlns:xlink="http://www.w3.org/1999/xlink" x="0px" y="0px"
	 width="512px" height="512px" viewBox="0 0 512 512" enable-background="new 0 0 512 512" xml:space="preserve">
<path fill="#A6B2BD" d="M490.721,182.656c-18.477,1.141-25.548,12.546-25.548,12.546L401.531,68.831c0,0-7.756-20.53-32.619-21.67
	c-28.514-0.483-112.912,0-112.912,0s-84.398-0.483-112.912,0c-24.864,1.141-32.619,21.67-32.619,21.67L46.827,195.202
	c0,0-7.071-11.405-25.548-12.546c-9.352,0.912-21.67,5.703-20.758,29.882s29.654,20.986,29.654,20.986v92.155
	c0,0-16.652,11.405-17.108,36.497c0.456,33.303,29.198,39.918,29.198,39.918h20.073v47.902c0,0,8.896,14.827,31.935,15.055
	c23.039,0.228,29.882-13.914,29.882-13.914v-47.218H256h131.845v47.218c0,0,6.843,14.143,29.882,13.914
	c23.039-0.228,31.935-15.055,31.935-15.055v-47.902h20.073c0,0,28.741-6.615,29.198-39.918
	c-0.456-25.092-17.108-36.497-17.108-36.497v-92.155c0,0,28.741,3.193,29.654-20.986
	C512.391,188.359,500.073,183.568,490.721,182.656z"/>
<path fill="#909FAD" d="M368.912,47.161c24.864,1.141,32.619,21.67,32.619,21.67l63.641,126.371c0,0,7.071-11.405,25.548-12.546
	c9.352,0.912,21.67,5.703,20.758,29.882c-0.912,24.179-29.654,20.986-29.654,20.986v92.155c0,0,16.652,11.405,17.108,36.497
	c-0.456,33.303-29.198,39.918-29.198,39.918h-20.073v47.902c0,0-8.896,14.827-31.935,15.055
	c-23.039,0.228-29.882-13.914-29.882-13.914v-47.218H256V47.161C256,47.161,340.398,46.678,368.912,47.161z"/>
<path fill="#E5E5E5" d="M256,64.801v150.854h177.01c0,0,9.732-1.407,0.912-23.533C418.012,154.371,381.458,70.2,381.458,70.2
	s-2.737-5.322-10.493-5.398C363.21,64.725,256,64.801,256,64.801z"/>
<path fill="#FFFFFF" d="M256,64.801v150.854H78.99c0,0-9.733-1.407-0.912-23.533C93.988,154.371,130.542,70.2,130.542,70.2
	s2.737-5.322,10.493-5.398C148.79,64.725,256,64.801,256,64.801z"/>
<circle fill="#FFFFFF" cx="82.183" cy="302.639" r="32.391"/>
<circle fill="#E5E5E5" cx="429.36" cy="302.639" r="32.391"/>
<rect x="177.304" y="293.743" fill="#FFFFFF" width="15.739" height="54.061"/>
<path fill="#FFFFFF" d="M164.149,347.804c0,0-8.972,1.747-8.972-2.51c0-4.257,0-44.859,0-48.281s8.972-3.27,8.972-3.27V347.804z"/>
<rect x="205.817" y="293.743" fill="#FFFFFF" width="15.739" height="54.061"/>
<rect x="234.33" y="293.743" fill="#FFFFFF" width="15.739" height="54.061"/>
<rect x="262.843" y="293.743" fill="#E5E5E5" width="15.739" height="54.061"/>
<rect x="291.356" y="293.743" fill="#E5E5E5" width="15.739" height="54.061"/>
<rect x="319.87" y="293.743" fill="#E5E5E5" width="15.739" height="54.061"/>
<path fill="#E5E5E5" d="M347.927,347.627c0,0,8.972,1.747,8.972-2.51s0-44.859,0-48.281c0-3.422-8.972-3.27-8.972-3.27V347.627z"/>
</svg>
