<?xml version="1.0" encoding="utf-8"?>
<!-- Generator: Adobe Illustrator 17.0.0, SVG Export Plug-In . SVG Version: 6.00 Build 0)  -->
<!DOCTYPE svg PUBLIC "-//W3C//DTD SVG 1.1//EN" "http://www.w3.org/Graphics/SVG/1.1/DTD/svg11.dtd">
<svg version="1.1" id="Layer_2" xmlns="http://www.w3.org/2000/svg" xmlns:xlink="http://www.w3.org/1999/xlink" x="0px" y="0px"
	 width="512px" height="512px" viewBox="0 0 512 512" enable-background="new 0 0 512 512" xml:space="preserve">
<rect x="75.333" y="94.667" fill="#BCC9D3" width="362" height="400.667"/>
<polygon fill="#A6B2BD" points="329.333,362.667 329.333,0 181.333,0 181.333,362.667 58.667,362.667 58.667,512 457.333,512 
	457.333,362.667 "/>
<rect x="201.833" y="25.5" fill="#FFFFFF" width="42" height="42"/>
<polygon fill="#909FAD" points="457.333,512 255.333,512 255.333,0 329.334,0 329.333,362.667 457.333,362.667 "/>
<rect x="157.833" y="415.5" fill="#FFFFFF" width="195" height="17"/>
<rect x="266.333" y="25.5" fill="#EAEAEA" width="42" height="42"/>
<rect x="203.083" y="97.5" fill="#FFFFFF" width="42" height="42"/>
<rect x="267.583" y="97.5" fill="#EAEAEA" width="42" height="42"/>
<rect x="203.083" y="172" fill="#FFFFFF" width="42" height="42"/>
<rect x="329.334" y="94.667" fill="#A3B2BF" width="107.999" height="268"/>
<rect x="267.583" y="172" fill="#EAEAEA" width="42" height="42"/>
<rect x="203.083" y="242.5" fill="#FFFFFF" width="42" height="42"/>
<rect x="267.583" y="242.5" fill="#EAEAEA" width="42" height="42"/>
<rect x="203.083" y="316.5" fill="#FFFFFF" width="42" height="42"/>
<rect x="112.583" y="321.75" fill="#FFFFFF" width="39.25" height="39.25"/>
<rect x="363.083" y="321.75" fill="#EAEAEA" width="39.25" height="39.25"/>
<rect x="113.125" y="256" fill="#FFFFFF" width="39.25" height="39.25"/>
<rect x="363.625" y="256" fill="#EAEAEA" width="39.25" height="39.25"/>
<rect x="113.125" y="193" fill="#FFFFFF" width="39.25" height="39.25"/>
<rect x="363.625" y="193" fill="#EAEAEA" width="39.25" height="39.25"/>
<rect x="113.125" y="128" fill="#FFFFFF" width="39.25" height="39.25"/>
<rect x="363.625" y="128" fill="#EAEAEA" width="39.25" height="39.25"/>
<rect x="267.583" y="316.5" fill="#EAEAEA" width="42" height="42"/>
<rect x="81.583" y="440" fill="#FFFFFF" width="60.25" height="60.25"/>
<rect x="379.083" y="440" fill="#EAEAEA" width="60.25" height="60.25"/>
<rect x="210.833" y="440" fill="#FFFFFF" width="34.25" height="72"/>
<rect x="264.182" y="440" fill="#EAEAEA" width="34.25" height="72"/>
<rect x="186.833" y="432.5" fill="#FFFFFF" width="16.25" height="79.5"/>
<rect x="309.583" y="432.5" fill="#EAEAEA" width="16.25" height="79.5"/>
<rect x="255.333" y="415.5" fill="#EAEAEA" width="97.5" height="17"/>
</svg>
