<?xml version="1.0" encoding="utf-8"?>
<!-- Generator: Adobe Illustrator 17.0.0, SVG Export Plug-In . SVG Version: 6.00 Build 0)  -->
<!DOCTYPE svg PUBLIC "-//W3C//DTD SVG 1.1//EN" "http://www.w3.org/Graphics/SVG/1.1/DTD/svg11.dtd">
<svg version="1.1" id="Layer_2" xmlns="http://www.w3.org/2000/svg" xmlns:xlink="http://www.w3.org/1999/xlink" x="0px" y="0px"
	 width="512px" height="512px" viewBox="0 0 512 512" enable-background="new 0 0 512 512" xml:space="preserve">
<circle fill="#A6B2BD" cx="255.855" cy="46.429" r="46.429"/>
<path fill="#A6B2BD" d="M191.31,131.369h127.572c0,0,32.978,2.604,32.544,35.147c-0.434,32.544,0,159.899,0,159.899h-34.713v183.981
	H194.131V325.981h-33.195V167.167C160.936,167.167,158.766,131.369,191.31,131.369z"/>
<path fill="#909FAD" d="M382.885,152.197c0.579,0,55.686-0.579,55.686-0.579s27.915-3.905,27.915,28.494s0,129.163,0,129.163
	l-28.783-0.145v148.834H351.43v-99.946c0,0,25.235,1.302,32.323-25.312C383.753,302.077,382.885,152.197,382.885,152.197z"/>
<circle fill="#909FAD" cx="387.007" cy="89.062" r="38.836"/>
<path fill="#A6B2BD" d="M129.115,152.703c-0.579,0-55.686-0.579-55.686-0.579s-27.915-3.905-27.915,28.494s0,129.163,0,129.163
	l28.783-0.145V458.47h86.273v-99.946c0,0-25.235,1.302-32.323-25.312C128.247,302.583,129.115,152.703,129.115,152.703z"/>
<circle fill="#A6B2BD" cx="124.993" cy="89.568" r="38.836"/>
<path fill="#909FAD" d="M302.597,46.429c0,25.642-20.787,46.429-46.429,46.429V0C281.81,0,302.597,20.787,302.597,46.429z"/>
<path fill="#909FAD" d="M255.276,510.396V131.369h64.237c32.544,0,30.374,35.798,30.374,35.798v158.814h-33.195v184.415H255.276z"/>
</svg>
